PathFileType	4	(X/Y/Z)	C:\Git\research_data\torsion_deformities_healthy_kinematics\simulations\P03\pre\Static01\markers.trc
DataRate	CameraRate	NumFrames	NumMarkers	Units	OrigDataRate	OrigDataStartFrame	OrigNumFrames
150.000000	150.000000	4	104	mm	150.000000	0	150
Frame#	Time	LFHD			LBHD			RFHD			RBHD			C7			T10			CLAV			STRN			RBAK			LSHO			LUPA			LELB			LFRA			LWRB			LWRA			LFIN			RSHO			RUPA			RELB			RFRA			RWRB			RWRA			RFIN			SACR			LASI			RASI			LT1			LT2			LT3			LS1			LS2			LS3			LHEE			LTOE			RT1			RT2			RT3			RS1			RS2			RS3			RHEE			RTOE			LKNE			LKNM			LANK			LANM			RKNM			RKNE			RANM			RANK			SACO			SACA			SACL			SACP			LKJC			RKJC			LAJC			RAJC			LMMA			RMMA			LTHI			RTHI			LTIB			RTIB			funktRKJC			funktLKJC			funktRHIP			funktLHIP			LHJC			RHJC			LPelvisAngles			RPelvisAngles			LFootProgressAngles			RFootProgressAngles			LHipAngles			RHipAngles			LKneeAngles			RKneeAngles			LAnkleAngles			RAnkleAngles			LFFootAngles			RFFootAngles			LAbsAnkleAngle			RAbsAnkleAngle			RNeckAngles			LNeckAngles			RSpineAngles			LSpineAngles			LShoulderAngles			LElbowAngles			LWristAngles			RShoulderAngles			RElbowAngles			RWristAngles			RThoraxAngles			LThoraxAngles			RHeadAngles			LHeadAngles			LNormalisedGRF			RNormalisedGRF			LGroundReactionForce			RGroundReactionForce			LGRF			RGRF			
		X1	Y1	Z1	X2	Y2	Z2	X3	Y3	Z3	X4	Y4	Z4	X5	Y5	Z5	X6	Y6	Z6	X7	Y7	Z7	X8	Y8	Z8	X9	Y9	Z9	X10	Y10	Z10	X11	Y11	Z11	X12	Y12	Z12	X13	Y13	Z13	X14	Y14	Z14	X15	Y15	Z15	X16	Y16	Z16	X17	Y17	Z17	X18	Y18	Z18	X19	Y19	Z19	X20	Y20	Z20	X21	Y21	Z21	X22	Y22	Z22	X23	Y23	Z23	X24	Y24	Z24	X25	Y25	Z25	X26	Y26	Z26	X27	Y27	Z27	X28	Y28	Z28	X29	Y29	Z29	X30	Y30	Z30	X31	Y31	Z31	X32	Y32	Z32	X33	Y33	Z33	X34	Y34	Z34	X35	Y35	Z35	X36	Y36	Z36	X37	Y37	Z37	X38	Y38	Z38	X39	Y39	Z39	X40	Y40	Z40	X41	Y41	Z41	X42	Y42	Z42	X43	Y43	Z43	X44	Y44	Z44	X45	Y45	Z45	X46	Y46	Z46	X47	Y47	Z47	X48	Y48	Z48	X49	Y49	Z49	X50	Y50	Z50	X51	Y51	Z51	X52	Y52	Z52	X53	Y53	Z53	X54	Y54	Z54	X55	Y55	Z55	X56	Y56	Z56	X57	Y57	Z57	X58	Y58	Z58	X59	Y59	Z59	X60	Y60	Z60	X61	Y61	Z61	X62	Y62	Z62	X63	Y63	Z63	X64	Y64	Z64	X65	Y65	Z65	X66	Y66	Z66	X67	Y67	Z67	X68	Y68	Z68	X69	Y69	Z69	X70	Y70	Z70	X71	Y71	Z71	X72	Y72	Z72	X73	Y73	Z73	X74	Y74	Z74	X75	Y75	Z75	X76	Y76	Z76	X77	Y77	Z77	X78	Y78	Z78	X79	Y79	Z79	X80	Y80	Z80	X81	Y81	Z81	X82	Y82	Z82	X83	Y83	Z83	X84	Y84	Z84	X85	Y85	Z85	X86	Y86	Z86	X87	Y87	Z87	X88	Y88	Z88	X89	Y89	Z89	X90	Y90	Z90	X91	Y91	Z91	X92	Y92	Z92	X93	Y93	Z93	X94	Y94	Z94	X95	Y95	Z95	X96	Y96	Z96	X97	Y97	Z97	X98	Y98	Z98	X99	Y99	Z99	X100	Y100	Z100	X101	Y101	Z101	X102	Y102	Z102	X103	Y103	Z103	X104	Y104	Z104	

1	0	382.0649108886717	1440.35302734375	-1133.1708984375	361.3485412597655	1420.98095703125	-994.2142333984375	498.0028686523436	1440.812133789062	-1139.960083007812	510.0776062011717	1420.682861328125	-987.5003051757812	441.1589050292968	1273.8896484375	-964.10400390625	443.063262939453	1094.520141601562	-915.230712890625	425.0601806640624	1212.9599609375	-1095.646240234375	420.282012939453	1160.16748046875	-1128.394165039062	540.288146972656	1176.93359375	-934.1135864257812	309.3128356933593	1263.111206054688	-1037.29833984375	215.8321380615233	1045.559326171875	-977.5430908203125	187.4798583984374	972.0116577148438	-968.0054931640625	143.5626983642577	889.6358642578125	-984.0220947265625	87.71611785888662	770.089599609375	-1030.117919921875	122.1370162963866	777.041015625	-1087.840209960938	75.56871032714832	719.883544921875	-1117.895141601562	557.4508056640623	1251.252685546875	-1062.313598632812	646.9088134765623	1077.232299804688	-1053.962890625	700.7841186523435	958.699951171875	-1031.901489257812	753.3900756835936	829.9064331054688	-1092.520141601562	773.1594848632811	749.7221069335938	-1103.940795898438	721.1483154296874	745.8330078125	-1146.665771484375	766.7637939453124	698.8831787109375	-1188.2080078125	428.3165893554686	874.5426635742188	-918.4747924804688	276.0162048339843	870.943115234375	-1073.995727539062	518.5843505859374	879.0072631835938	-1127.219848632812	242.2849731445312	585.767578125	-1129.932250976562	230.4490509033202	474.0944519042969	-1080.85302734375	275.8287048339843	531.2861328125	-1204.695556640625	282.3900756835937	216.8831787109375	-1034.0556640625	341.9718017578124	148.5581665039063	-951.0731811523438	254.4027557373046	131.2842712402344	-1063.027221679688	367.9279479980468	41.86734008789065	-973.886962890625	262.5615234374999	41.46903228759767	-1083.526245117188	590.2390136718749	608.27880859375	-1135.057861328125	584.4978027343749	510.6788940429688	-1057.71728515625	580.6488037109374	534.7575073242188	-1199.7783203125	586.1029052734374	267.0842590332032	-1089.997314453125	561.3419189453124	217.6316223144532	-981.9888916015625	581.7576904296874	176.8344268798828	-1117.220825195312	500.0668945312499	45.05433273315433	-982.0199584960938	570.5022583007811	41.88113784790043	-1123.464233398438	267.4565124511718	432.3818664550781	-1149.450927734375	367.1423950195312	421.4636535644531	-1165.127197265625	304.8930664062499	49.72745513916018	-994.478271484375	357.0814208984374	46.96824264526369	-1045.193115234375	464.4552001953124	424.1323242187501	-1165.928833007812	566.8656616210936	440.1233825683594	-1166.016723632812	490.6586914062499	52.79234695434573	-1063.049560546875	552.1856079101561	47.71815109252933	-1019.232482910156	422.1688232421874	874.8817749023438	-987.2842407226562	420.9253845214843	874.886474609375	-992.950439453125	416.5056152343749	874.6934814453125	-986.0416259765625	420.3396911621093	932.861328125	-986.8349609375	317.2994689941406	426.9227600097656	-1157.2890625	515.6604003906249	432.1278686523438	-1165.972778320312	330.9872436523437	48.34785079956057	-1019.835693359375	521.4221191406249	50.25524902343753	-1041.140991210938	357.0814208984374	46.96824264526369	-1045.193115234375	490.6586914062499	52.79234695434573	-1063.049560546875	223.8563995361327	611.0791015625	-1086.870971679688	600.4639892578124	624.5819702148438	-1119.402587890625	242.1935424804687	243.9898071289063	-1009.733093261719	612.6032714843749	244.3540496826172	-1040.0263671875	0	0	0	0	0	0	0	0	0	0	0	0	352.4199829101561	782.9131469726562	-1047.522338867188	465.8247070312499	785.855712890625	-1071.84130859375	-1.806747198104858	-12.38342380523682	-0.443846970796585	1.806747198104858	12.38342380523682	-0.4438469707965852	13.2617998123169	-43.90836715698242	0.0615200214087955	9.367562294006349	-26.47110366821289	1.279881358146667	-3.420851707458496	5.729106426239014	17.8443546295166	-8.928735733032227	-10.27009582519531	12.82012939453125	2.174623966217045	-34.14761352539062	37.71408081054688	6.943499088287357	-30.91317367553711	32.96866226196289	1.283529043197633	-2.500645160675049	15.59401893615723	-0.4584581553935999	5.335064888000488	14.69921112060547	-3.946186317305015e-15	1.590277359294755e-15	3.230250935698311e-16	8.970158532520082e-15	1.590277359294756e-15	-1.789061910092592e-15	9.386345390790376e-16	0	15.32906532287598	8.917592515787533e-16	0	14.56353378295898	-0.397829592227937	8.169219970703125	-11.70808601379395	0.3978295922279356	-8.169219970703125	-11.70808601379395	2.996870279312134	5.934086799621582	4.10624361038208	-2.996870279312133	-5.934086799621582	4.10624361038208	19.04472732543945	-11.29299926757812	-9.310194969177248	3.971723318026082e-15	-8.857845013032772e-13	38.89196395874023	-12.33349990844727	128.3331909179688	16.33112144470215	24.45312118530273	0.8844676017761245	-8.945909500122072	5.396019280767945e-15	-1.159312229548348e-12	36.18128204345703	-0.04705240577460028	132.2441253662109	19.18454551696777	-0.7074934244155886	6.514394283294678	3.973234176635742	0.707493424415589	-6.514394283294678	3.973234176635742	0.03235216438770352	-1.683161973953247	7.718413352966309	-0.03235216438770257	1.683161973953247	7.718413352966309	0	0	0	0	0	0	0	0	0	0	0	0	0	0	0	0	0	0	
2	0.006666666666666667	382.0867614746092	1440.328247070312	-1133.125244140625	361.359405517578	1420.988159179688	-994.1587524414062	498.0123901367186	1440.797485351562	-1139.87939453125	510.0928344726561	1420.72705078125	-987.453857421875	441.1930541992186	1273.898681640625	-963.9762573242188	443.1301879882811	1094.50537109375	-915.1838989257812	425.1138305664061	1212.940795898438	-1095.560791015625	420.3540649414061	1160.15771484375	-1128.302490234375	540.386535644531	1176.922607421875	-934.0779418945312	309.3678894042968	1263.090087890625	-1037.218017578125	215.8900451660155	1045.531005859375	-977.4660034179688	187.5525665283202	971.986083984375	-967.9536743164062	143.614288330078	889.603271484375	-983.90869140625	87.81478118896474	770.0299682617188	-1029.977294921875	122.2521972656249	776.932373046875	-1087.736450195312	75.6710968017577	719.7950439453125	-1117.7470703125	557.4803466796873	1251.289672851562	-1062.234497070312	646.9658203124998	1077.26953125	-1053.942016601562	700.859191894531	958.7471923828125	-1031.911865234375	753.5220336914061	829.984375	-1092.605834960938	773.2712402343749	749.8091430664062	-1103.984375	721.2733154296874	745.9244995117188	-1146.740600585938	766.9347534179686	699.0096435546875	-1188.304565429688	428.3910217285155	874.504638671875	-918.42529296875	276.0945434570311	870.98486328125	-1073.977661132812	518.6912231445311	879.0393676757812	-1127.145751953125	242.3082733154296	585.8109130859375	-1129.878295898438	230.4788055419921	474.1145935058594	-1080.741333007812	275.8155517578124	531.3171997070312	-1204.653442382812	282.3991088867187	216.8990936279297	-1033.98779296875	341.9909667968749	148.5507354736328	-951.02099609375	254.3856506347656	131.3207092285157	-1062.95849609375	367.9213256835937	41.84811782836916	-973.885498046875	262.5152587890624	41.46053695678712	-1083.501953125	590.3199462890624	608.2802734375	-1134.98095703125	584.5210571289061	510.6821289062501	-1057.623657226562	580.7407836914061	534.77099609375	-1199.702880859375	586.1409301757811	267.0885314941407	-1089.9638671875	561.3308715820311	217.6102600097657	-981.9554443359375	581.7974853515624	176.832748413086	-1117.189697265625	500.0732116699218	45.04576492309573	-982.0292358398438	570.4993896484374	41.88603210449222	-1123.460327148438	267.3996887207031	432.4314270019531	-1149.400024414062	367.1214904785156	421.481201171875	-1165.073974609375	304.8766479492187	49.69629669189455	-994.4437255859375	357.0458984374999	46.98759841918947	-1045.181518554688	464.5222167968749	424.1475219726563	-1165.900512695312	566.9289550781249	440.1358032226563	-1165.960815429688	490.6604614257812	52.79469680786136	-1063.059326171875	552.1998291015624	47.71253204345707	-1019.249816894531	422.2351684570311	874.8709716796875	-987.2323608398438	420.9930114746093	874.8780517578125	-992.8988037109375	416.5716247558593	874.6829223632812	-985.9910888671875	420.4134521484374	932.8505859375	-986.7606811523438	317.2605895996093	426.9563293457031	-1157.237060546875	515.7255859374999	432.1416625976563	-1165.9306640625	330.9612731933593	48.34194946289065	-1019.812561035156	521.4301147460936	50.25361633300784	-1041.154663085938	357.0458984374999	46.98759841918947	-1045.181518554688	490.6604614257812	52.79469680786136	-1063.059326171875	223.8773651123046	611.1442260742188	-1086.852172851562	600.5347290039061	624.5870361328125	-1119.3408203125	242.1729431152343	244.0005798339844	-1009.671691894531	612.6485595703124	244.3327941894532	-1040.025268554688	0	0	0	0	0	0	0	0	0	0	0	0	352.4884948730468	782.9349365234375	-1047.52294921875	465.899200439453	785.8724975585938	-1071.814575195312	-1.799505591392516	-12.37008953094482	-0.4660019278526305	1.799505591392516	12.37008953094482	-0.4660019278526307	13.25778007507325	-43.91762161254883	0.0626046136021606	9.358263969421388	-26.4716739654541	1.275802969932555	-3.440836191177368	5.723587036132812	17.81690979003906	-8.925985336303711	-10.27113056182861	12.79710865020752	2.196362257003789	-34.15652084350586	37.70357131958008	6.942486763000492	-30.8912181854248	32.95979690551758	1.281786680221559	-2.496159553527832	15.58830547332764	-0.4561014771461481	5.326117038726807	14.69901466369629	-9.279206126622339e-15	-5.681875040798279e-31	1.024983452164997e-15	7.379880432071498e-15	1.590277359294756e-15	3.975693398236883e-16	9.385788879674545e-16	0	15.32815647125244	8.918282753079151e-16	0	14.56466102600098	-0.3966342806816113	8.16732120513916	-11.67226886749268	0.3966342806816099	-8.16732120513916	-11.67226886749268	2.977168321609497	5.925459384918213	4.112270832061768	-2.977168321609496	-5.925459384918213	4.112270832061768	19.05470657348633	-11.28534698486328	-9.327881813049318	3.175354357561409e-15	-4.293748923035398e-14	38.87187194824219	-12.3186321258545	128.3593444824219	16.33510398864746	24.44674301147461	0.8806847333908095	-8.943675994873049	2.215184029187876e-15	-1.900381327996081e-12	36.17670059204102	-0.01845383457840181	132.2421112060547	19.19539451599121	-0.6948678493499758	6.508895397186279	3.954640626907349	0.6948678493499763	-6.508895397186279	3.954640626907349	0.04322247579693852	-1.684398055076599	7.701195240020752	-0.04322247579693757	1.684398055076599	7.701195240020752	0	0	0	0	0	0	0	0	0	0	0	0	0	0	0	0	0	0	
3	0.01333333333333333	382.103057861328	1440.307739257812	-1133.0771484375	361.3675842285155	1421.002075195312	-994.103515625	498.022979736328	1440.791748046875	-1139.806640625	510.106231689453	1420.778198242188	-987.4026489257812	441.2317504882811	1273.914306640625	-963.8591918945312	443.196563720703	1094.497680664062	-915.1331176757812	425.1707763671874	1212.92822265625	-1095.478149414062	420.4292907714843	1160.1494140625	-1128.212646484375	540.4688720703123	1176.929443359375	-934.0228881835938	309.4214782714843	1263.072998046875	-1037.133666992188	215.9564666748046	1045.503540039062	-977.3836059570312	187.6210632324218	971.953857421875	-967.888671875	143.6828155517577	889.5757446289062	-983.8115234375	87.90392303466787	769.9777221679688	-1029.845336914062	122.352569580078	776.8833618164062	-1087.624389648438	75.7742462158202	719.703125	-1117.590576171875	557.514465332031	1251.334838867188	-1062.155517578125	647.0268554687498	1077.314697265625	-1053.908813476562	700.9340820312498	958.7977905273438	-1031.915405273438	753.6449584960936	830.0690307617188	-1092.68115234375	773.3819580078124	749.8948974609375	-1104.046264648438	721.3908081054686	746.0235595703125	-1146.810546875	767.0758056640624	699.12353515625	-1188.383911132812	428.4603271484374	874.47998046875	-918.3856811523438	276.1732177734374	871.0264282226562	-1073.955688476562	518.7930908203124	879.0722045898438	-1127.075439453125	242.3214111328124	585.8524780273438	-1129.818237304688	230.493423461914	474.1409912109375	-1080.630859375	275.790802001953	531.3448486328125	-1204.6025390625	282.3970642089843	216.9175415039063	-1033.920166015625	342.0051879882812	148.5474548339844	-950.9719848632812	254.3642120361328	131.3532257080078	-1062.891235351562	367.9135742187499	41.83450698852541	-973.8829345703125	262.4716186523437	41.45169067382814	-1083.478393554688	590.4011840820311	608.28515625	-1134.8935546875	584.5433959960936	510.6853637695313	-1057.529174804688	580.8435668945311	534.7830200195312	-1199.619018554688	586.1831665039061	267.0919189453126	-1089.927490234375	561.3322143554686	217.5912780761719	-981.92626953125	581.8367309570311	176.8323669433594	-1117.15576171875	500.0780639648437	45.0385665893555	-982.0361938476562	570.4996948242186	41.88924026489261	-1123.456909179688	267.3688049316406	432.4633483886719	-1149.304443359375	367.0953369140624	421.4953308105469	-1165.022705078125	304.8565673828124	49.67508316040041	-994.4155883789062	357.0116577148437	47.00783920288088	-1045.169311523438	464.5979614257812	424.1667785644532	-1165.872192382812	567.0042724609374	440.1495971679688	-1165.899780273438	490.6643676757812	52.79831314086917	-1063.064575195312	552.2108764648436	47.70682907104496	-1019.260620117188	422.3028564453124	874.8687133789062	-987.1813354492188	421.0618591308593	874.8777465820312	-992.8480224609375	416.6390686035155	874.680908203125	-985.9412841796875	420.487579345703	932.848388671875	-986.6913452148438	317.2320861816406	426.9793395996094	-1157.16357421875	515.8011474609374	432.1582031250001	-1165.885986328125	330.9341125488281	48.34146118164065	-1019.792419433594	521.4376220703124	50.25257110595706	-1041.16259765625	357.0116577148437	47.00783920288088	-1045.169311523438	490.6643676757812	52.79831314086917	-1063.064575195312	223.9081573486327	611.18603515625	-1086.764282226562	600.6113891601561	624.5967407226562	-1119.268798828125	242.1559448242187	244.0049591064453	-1009.611389160156	612.6957397460936	244.3125915527344	-1040.014404296875	0	0	0	0	0	0	0	0	0	0	0	0	352.5581970214843	782.9598388671875	-1047.515625	465.9740600585936	785.8929443359375	-1071.78369140625	-1.793376088142394	-12.35862636566162	-0.4842274785041808	1.793376088142394	12.35862636566162	-0.484227478504181	13.24892902374268	-43.92633438110352	0.06874007731676021	9.347246170043947	-26.47237205505371	1.272722125053405	-3.459496736526489	5.690317630767822	17.79079818725586	-8.924966812133789	-10.27739906311035	12.77769660949707	2.197930574417119	-34.13886260986328	37.68851470947266	6.942567825317386	-30.8686637878418	32.95185470581055	1.280183911323548	-2.49410605430603	15.57636260986328	-0.4545892775058741	5.32036304473877	14.69899272918701	5.913843853776754e-15	3.621184973092475e-31	-4.162053881522638e-16	-1.987846778527783e-15	4.770832183763384e-15	3.975693398236889e-16	9.381669646294616e-16	0	15.32142925262451	8.918911090918221e-16	0	14.56568717956543	-0.3974938392639172	8.165326118469238	-11.63988876342773	0.3974938392639158	-8.165326118469238	-11.63988876342773	2.959794521331787	5.918976306915283	4.117872714996338	-2.959794521331786	-5.918976306915283	4.117872714996338	19.0628719329834	-11.28628635406494	-9.341766357421877	5.559930666194676e-15	-3.741922570410505e-12	38.85815811157227	-12.32481288909913	128.3586578369141	16.31223106384277	24.44030380249023	0.8733181357383742	-8.938265800476076	4.600472584839045e-15	-2.054638360490801e-12	36.17461776733398	-0.01269833091647125	132.2422943115234	19.19133949279785	-0.6835108995437624	6.503200531005859	3.939807653427124	0.6835108995437629	-6.503200531005859	3.939807653427124	0.05498157441616116	-1.68558394908905	7.683592319488525	-0.05498157441616022	1.68558394908905	7.683592319488525	0	0	0	0	0	0	0	0	0	0	0	0	0	0	0	0	0	0	
4	0.02	382.1142272949217	1440.29150390625	-1133.02685546875	361.3734741210936	1421.022216796875	-994.0482177734375	498.0347595214842	1440.794311523438	-1139.741943359375	510.1180419921873	1420.8359375	-987.3467407226562	441.2749938964843	1273.935180664062	-963.7536010742188	443.262481689453	1094.49658203125	-915.07861328125	425.2300720214843	1212.923583984375	-1095.39697265625	420.5075073242186	1160.145141601562	-1128.126220703125	540.5368041992185	1176.95068359375	-933.9497680664062	309.473663330078	1263.06005859375	-1037.045043945312	216.0320281982421	1045.47705078125	-977.2962646484375	187.6876068115233	971.9224243164062	-967.8107299804688	143.7683105468749	889.5546264648438	-983.7205200195312	87.98621368408193	769.9306030273438	-1029.714721679688	122.4343414306639	776.8709716796875	-1087.49951171875	75.87789154052723	719.6088256835938	-1117.427734375	557.5539550781248	1251.386474609375	-1062.077758789062	647.0911865234373	1077.36767578125	-1053.862915039062	701.0086669921873	958.851806640625	-1031.912475585938	753.7601928710936	830.1595458984375	-1092.744506835938	773.4941406249999	749.9840087890625	-1104.121337890625	721.5012817382811	746.1300048828125	-1146.87646484375	767.1959838867186	699.23046875	-1188.453247070312	428.5246582031249	874.4693603515625	-918.3544921875	276.2518005371093	871.0672607421875	-1073.929931640625	518.8899536132811	879.1054077148438	-1127.008666992188	242.3239746093749	585.8917236328125	-1129.751586914062	230.495376586914	474.1710510253906	-1080.521118164062	275.7536621093749	531.3695068359375	-1204.543579101562	282.3851623535156	216.9381408691407	-1033.853271484375	342.0147094726562	148.548080444336	-950.9263916015625	254.3382415771484	131.382797241211	-1062.825561523438	367.9046630859374	41.82606506347658	-973.8787841796875	262.4300842285156	41.44268798828126	-1083.455078125	590.4834594726561	608.2928466796875	-1134.796142578125	584.5646362304686	510.6894226074219	-1057.433837890625	580.9553222656249	534.7943725585938	-1199.527099609375	586.2298583984374	267.0942382812501	-1089.887939453125	561.3448486328124	217.5745391845703	-981.9005126953125	581.8757324218749	176.8328247070313	-1117.119018554688	500.0814514160156	45.03271484375003	-982.0409545898438	570.5031127929686	41.89079284667972	-1123.453857421875	267.3739013671874	432.4766235351562	-1149.155395507812	367.0611572265624	421.5061340332031	-1164.975341796875	304.8334655761718	49.66297912597658	-994.393310546875	356.9787902832031	47.02875900268557	-1045.156372070312	464.6821594238281	424.1889953613282	-1165.846557617188	567.0919799804686	440.1644287109376	-1165.83447265625	490.6702880859374	52.80302429199222	-1063.0654296875	552.2185668945311	47.70102691650394	-1019.265014648438	422.3714599609374	874.8753662109375	-987.1309204101562	421.1314086914061	874.8859252929688	-992.7978515625	416.7074279785155	874.687744140625	-985.891845703125	420.5611572265624	932.8550415039062	-986.6267700195312	317.2175292968749	426.9913635253906	-1157.0654296875	515.8870849609374	432.1766967773438	-1165.840454101562	330.9061279296874	48.34586715698244	-1019.774780273438	521.4444580078124	50.25202560424808	-1041.165283203125	356.9787902832031	47.02875900268557	-1045.156372070312	490.6702880859374	52.80302429199222	-1063.0654296875	223.9523010253905	611.1991577148438	-1086.593139648438	600.6944580078124	624.6100463867188	-1119.185668945312	242.145278930664	244.0027770996094	-1009.550109863281	612.7448120117186	244.2932434082032	-1039.994506835938	0	0	0	0	0	0	0	0	0	0	0	0	352.6289672851561	782.9876098632812	-1047.499755859375	466.0491943359374	785.9168701171875	-1071.748046875	-1.78846800327301	-12.34891986846924	-0.4981892406940459	1.78846800327301	12.34891986846924	-0.4981892406940461	13.23584270477295	-43.93492889404297	0.07930027693509975	9.334677696228029	-26.47330856323242	1.270580530166625	-3.476440906524658	5.622366905212402	17.76581573486328	-8.925693511962891	-10.28963565826416	12.76260471343994	2.174395084381108	-34.09006500244141	37.66813278198242	6.943291664123539	-30.84472465515137	32.94552993774414	1.278708219528199	-2.494526624679565	15.55792236328125	-0.4538899660110468	5.317649841308594	14.6994104385376	9.369280457266309e-15	3.180554718589511e-15	-2.049966904329993e-15	1.416340731762861e-15	-3.18055471858951e-15	1.590277359294755e-15	9.373401981679782e-16	0	15.30792713165283	8.919654468305894e-16	0	14.56690120697021	-0.4001148045063031	8.163398742675781	-11.61042213439941	0.4001148045063017	-8.163398742675781	-11.61042213439941	2.944571971893311	5.914289474487305	4.122170925140381	-2.94457197189331	-5.914289474487305	4.122170925140381	19.06975555419922	-11.29361915588379	-9.352990150451662	3.173904508874905e-15	-2.555575759691231e-12	38.84819412231445	-12.34912395477295	128.3366241455078	16.276123046875	24.43367767333984	0.8617923259735122	-8.930433273315431	3.805342261234155e-15	9.780206158827021e-13	36.17475509643555	-0.02374099753797747	132.2484436035156	19.17681884765625	-0.6732193827629092	6.497514247894287	3.928185701370239	0.6732193827629096	-6.497514247894287	3.928185701370239	0.06751789897680339	-1.686697959899902	7.66563892364502	-0.06751789897680245	1.686697959899902	7.66563892364502	0	0	0	0	0	0	0	0	0	0	0	0	0	0	0	0	0	0	
